<svg xmlns="http://www.w3.org/2000/svg" data-guides="{&quot;vertical&quot;:[],&quot;horizontal&quot;:[]}" viewBox="0 0 94.72 42.88"><path fill="#009a00" stroke="#009a00" stroke-linecap="round" stroke-linejoin="round" stroke-width="2.824" d="M1.406 41.037V1.42h12.892c2.443 0 4.561.417 6.354 1.25 1.81.815 3.207 1.985 4.192 3.51 1.001 1.524 1.502 3.34 1.502 5.45 0 1.542-.299 2.933-.896 4.174a9.067 9.067 0 0 1-2.425 3.084 10.413 10.413 0 0 1-3.428 1.861v.027c1.441.23 2.795.753 4.06 1.569a9.138 9.138 0 0 1 3.058 3.19c.791 1.33 1.187 2.925 1.187 4.786 0 2.127-.501 3.997-1.503 5.61-.984 1.613-2.417 2.871-4.297 3.775-1.88.886-4.166 1.33-6.855 1.33H1.407Zm2.4-2.234h11.441c3.234 0 5.747-.762 7.54-2.286 1.81-1.525 2.716-3.572 2.716-6.142 0-1.755-.457-3.253-1.371-4.493-.914-1.241-2.145-2.19-3.691-2.845-1.53-.674-3.234-1.01-5.115-1.01H3.806v16.776Zm0-19.01h11.441c1.74 0 3.26-.354 4.561-1.063 1.318-.727 2.338-1.702 3.058-2.925.739-1.223 1.108-2.579 1.108-4.068 0-2.552-.88-4.537-2.637-5.955-1.757-1.418-4.086-2.127-6.986-2.127H3.805v16.138Zm35.511 21.244c-1.898 0-3.286-.417-4.165-1.25-.879-.85-1.318-2.18-1.318-3.988V1.42h2.32V35.64c0 1.223.237 2.083.711 2.58.475.478 1.31.717 2.505.717h.712v2.1h-.765Zm12.998.425c-1.705 0-3.278-.293-4.72-.877-1.44-.585-2.61-1.472-3.506-2.66-.879-1.204-1.318-2.711-1.318-4.519 0-1.294.246-2.393.738-3.297.492-.922 1.213-1.684 2.162-2.286.95-.603 2.136-1.1 3.56-1.49 1.423-.39 3.066-.708 4.93-.956 1.704-.23 3.145-.452 4.323-.665 1.177-.23 2.065-.54 2.663-.93.615-.39.922-.967.922-1.729v-.585c0-1.311-.351-2.481-1.054-3.51-.686-1.027-1.635-1.834-2.848-2.419-1.195-.602-2.566-.904-4.112-.904-1.53 0-2.918.302-4.166.904-1.248.585-2.24 1.383-2.979 2.393-.72 1.01-1.09 2.154-1.107 3.43h-2.346c.035-1.684.518-3.19 1.45-4.52.931-1.33 2.188-2.384 3.77-3.164 1.599-.78 3.392-1.17 5.378-1.17 1.494 0 2.865.222 4.112.665 1.248.443 2.33 1.063 3.243 1.861a8.31 8.31 0 0 1 2.162 2.845c.51 1.099.765 2.295.765 3.59v19.568h-2.268v-5.185h-.079c-.457 1.064-1.133 2.02-2.03 2.872-.896.833-1.986 1.497-3.269 1.994-1.283.496-2.742.744-4.376.744Zm.21-2.154c1.864 0 3.516-.38 4.957-1.143a8.248 8.248 0 0 0 3.375-3.27c.808-1.436 1.212-3.155 1.212-5.158v-4.36c-.316.265-.72.505-1.212.718a9.772 9.772 0 0 1-1.714.558c-.65.142-1.397.283-2.24.425-.845.142-1.776.284-2.795.426-2.04.283-3.727.664-5.062 1.143-1.336.478-2.33 1.108-2.98 1.888-.632.78-.949 1.772-.949 2.977 0 1.241.326 2.296.976 3.164.65.869 1.538 1.525 2.663 1.968 1.124.443 2.381.664 3.77.664Zm28.21-26.348v2.1H67.948v-2.1c4.263 0 9.979-.128 12.787 0Zm-8.252-7.657h2.294v29.91c0 1.295.29 2.243.87 2.846.597.585 1.555.877 2.873.877h2.215v2.1h-2.373c-1.933 0-3.4-.478-4.402-1.435-.985-.957-1.477-2.366-1.477-4.228V5.303Zm20.828 7.657v2.1H80.524v-2.1h12.787Zm-8.252-7.657h2.293v29.91c0 1.295.29 2.243.87 2.846.598.585 1.556.877 2.874.877h2.215v2.1h-2.373c-1.934 0-3.401-.478-4.403-1.435-.984-.957-1.476-2.366-1.476-4.228V5.303Z" aria-label="Blatt" font-weight="200" word-spacing="1.001"/></svg>
