<?xml version="1.0" encoding="UTF-8" standalone="no"?>
<!-- Created with Inkscape (http://www.inkscape.org/) -->

<svg
   width="44.675381"
   height="44.240978"
   viewBox="0 0 44.675381 44.240978"
   version="1.1"
   id="svg1"
   xml:space="preserve"
   xmlns="http://www.w3.org/2000/svg"
   xmlns:svg="http://www.w3.org/2000/svg"><defs
     id="defs1" /><g
     id="layer2"
     transform="translate(-1.016371,-2.2804171)"><path
       style="display:inline;opacity:1;fill:#009a00;fill-opacity:1;stroke-width:1.5;stroke-linecap:round;stroke-linejoin:round"
       d="M 45.691752,2.2804171 C 19.407423,2.2804171 8.8995027,8.8735874 8.3429895,25.807648 8.0551234,34.567086 23.822775,46.486978 37.209733,39.545771 45.691752,35.1478 45.691752,19.26374 45.691752,2.2804171 Z"
       id="path1" /><path
       id="path2"
       style="display:inline;opacity:1;fill:#009a00;fill-opacity:1;stroke-width:1.5;stroke-linecap:round;stroke-linejoin:round"
       d="M 14.811812,36.655278 C 13.515685,38.419803 11.9553,40.29837 10.326172,41.765625 9.3054882,42.619047 8.2444653,43.553699 6.9648438,43.917969 5.4074,44.361326 4.3637532,44.022548 2.1074219,43.845703 0.82379522,43.998062 0.59500284,45.41846 1.8398438,45.933594 c 1.6076341,0.771561 3.2753616,0.680771 4.8125,0.3125 1.6816607,-0.402896 3.8887932,-1.469161 5.8398442,-3.595703 1.379915,-1.504037 2.797257,-3.373325 3.925004,-4.843197 -0.546714,-0.395685 -1.102478,-0.785078 -1.60538,-1.151916 z" /><path
       id="path4"
       style="display:inline;opacity:1;fill:#006500;fill-opacity:1;fill-rule:nonzero;stroke-width:1.5;stroke-linecap:round;stroke-linejoin:round"
       d="m 30.96875,8.5 c 0.09838,2.847792 0.580736,5.342766 -0.171875,8.21875 l -3.694863,4.578125 C 27.233104,19.561297 26.832727,17.766393 26.09375,16.28125 25.208702,14.502544 22.6875,12.625 22.6875,12.625 c 0,0 1.695227,2.295088 2.337891,4.701172 0.87572,3.278625 0.93649,5.44248 0.451171,6.259766 L 20.375,30.125 C 20.839003,27.315897 21.24236,24.116945 20.046875,21.5 18.784651,18.736962 18.247898,19.128346 17.375,18.03125 c 0.956219,2.125 1.780124,4.158988 1.96875,6.375 0.204918,2.407422 -5.64e-4,4.960433 -0.9375,7.1875 -1.302617,1.700697 -2.317516,3.32315 -3.594438,5.061528 0.522293,0.39711 1.066065,0.745902 1.60538,1.151916 1.636913,-2.133506 2.924037,-3.752523 4.770308,-4.916569 1.786421,-0.82559 3.913338,-0.981997 5.914512,-1.159581 2.306273,-0.204658 6.945054,0.115196 6.945054,0.115196 -1.492905,-0.793978 -3.696021,-1.540467 -6.18455,-1.660041 -1.83241,-0.08805 -5.854014,0.764245 -5.854014,0.764245 0,0 3.753465,-4.784783 4.950664,-6.329733 0.622482,-0.803295 3.241608,-0.771842 5.04474,-0.765242 2.277713,0.0083 5.683594,0.332031 5.683594,0.332031 0,0 -1.917013,-1.211479 -4.624425,-1.549268 C 30.915523,22.370293 28.4375,22.359375 28.4375,22.359375 l 3.773667,-4.678807 c 1.764424,-1.744237 5.065765,-1.63583 8.116117,-1.901999 C 38.188099,15.084861 36.023116,14.877238 33.796875,15.296875 35.359076,13.227331 37.444637,10.920782 38.65625,8.59375 36.313784,10.165239 34.564517,12.264121 32.625,14.4375 32.342535,11.968421 31.610596,10.210386 30.96875,8.5 Z" /></g></svg>
