<svg width="144.67538" height="44.240978" xmlns="http://www.w3.org/2000/svg" xml:space="preserve" version="1.1">

 <g>
  <title>Layer 1</title>
  <g id="layer2">
   <path stroke-linejoin="round" stroke-linecap="round" stroke-width="1.5" fill="#009a00" id="path1" d="m44.67538,0c-26.28433,0 -36.79225,6.59317 -37.34876,23.52723c-0.28787,8.75944 15.47979,20.67933 28.86674,13.73812c8.48202,-4.39797 8.48202,-20.28203 8.48202,-37.26535z"/>
   <path stroke-linejoin="round" stroke-linecap="round" stroke-width="1.5" fill="#009a00" d="m13.79544,34.37486c-1.29613,1.76452 -2.85651,3.64309 -4.48564,5.11035c-1.02068,0.85342 -2.0817,1.78807 -3.36133,2.15234c-1.55744,0.44336 -2.60109,0.10458 -4.85742,-0.07227c-1.28362,0.15236 -1.51242,1.57276 -0.26758,2.08789c1.60764,0.77156 3.27537,0.68077 4.8125,0.3125c1.68166,-0.40289 3.8888,-1.46916 5.83985,-3.5957c1.37991,-1.50404 2.79726,-3.37332 3.925,-4.8432c-0.54671,-0.39568 -1.10248,-0.78507 -1.60538,-1.15191z" id="path2"/>
   <path stroke-linejoin="round" stroke-linecap="round" stroke-width="1.5" fill-rule="nonzero" fill="#006500" d="m29.95238,6.21958c0.09838,2.84779 0.58074,5.34277 -0.17187,8.21875l-3.69487,4.57813c0.13109,-1.73558 -0.26928,-3.53049 -1.00826,-5.01563c-0.88505,-1.77871 -3.40625,-3.65625 -3.40625,-3.65625c0,0 1.69523,2.29509 2.33789,4.70117c0.87572,3.27863 0.93649,5.44248 0.45117,6.25977l-5.10156,6.53906c0.464,-2.8091 0.86736,-6.00805 -0.32812,-8.625c-1.26223,-2.76304 -1.79898,-2.37165 -2.67188,-3.46875c0.95622,2.125 1.78012,4.15899 1.96875,6.375c0.20492,2.40742 -0.00056,4.96043 -0.9375,7.1875c-1.30262,1.7007 -2.31752,3.32315 -3.59444,5.06153c0.52229,0.39711 1.06607,0.7459 1.60538,1.15191c1.63691,-2.1335 2.92404,-3.75252 4.77031,-4.91656c1.78642,-0.82559 3.91334,-0.982 5.91451,-1.15959c2.30628,-0.20465 6.94506,0.1152 6.94506,0.1152c-1.49291,-0.79398 -3.69603,-1.54047 -6.18455,-1.66004c-1.83241,-0.08805 -5.85402,0.76424 -5.85402,0.76424c0,0 3.75347,-4.78478 4.95067,-6.32973c0.62248,-0.80329 3.2416,-0.77184 5.04474,-0.76524c2.27771,0.0083 5.68359,0.33203 5.68359,0.33203c0,0 -1.91701,-1.21148 -4.62443,-1.54927c-2.14755,-0.26794 -4.62557,-0.27885 -4.62557,-0.27885l3.77367,-4.67881c1.76442,-1.74424 5.06576,-1.63583 8.11611,-1.902c-2.13918,-0.69371 -4.30416,-0.90133 -6.5304,-0.48169c1.5622,-2.06955 3.64776,-4.3761 4.85937,-6.70313c-2.34247,1.57149 -4.09173,3.67037 -6.03125,5.84375c-0.28247,-2.46908 -1.0144,-4.22711 -1.65625,-5.9375z" id="path4"/>
  </g>
  <g>
   <path word-spacing="1.001" font-weight="200" aria-label="Blatt" d="m51.05186,41.71649l0,-39.617l12.892,0c2.443,0 4.561,0.417 6.354,1.25c1.81,0.815 3.207,1.985 4.192,3.51c1.001,1.524 1.502,3.34 1.502,5.45c0,1.542 -0.299,2.933 -0.896,4.174a9.067,9.067 0 0 1 -2.425,3.084a10.413,10.413 0 0 1 -3.428,1.861l0,0.027c1.441,0.23 2.795,0.753 4.06,1.569a9.138,9.138 0 0 1 3.058,3.19c0.791,1.33 1.187,2.925 1.187,4.786c0,2.127 -0.501,3.997 -1.503,5.61c-0.984,1.613 -2.417,2.871 -4.297,3.775c-1.88,0.886 -4.166,1.33 -6.855,1.33l-13.84,0l-0.001,0.001zm2.4,-2.234l11.441,0c3.234,0 5.747,-0.762 7.54,-2.286c1.81,-1.525 2.716,-3.572 2.716,-6.142c0,-1.755 -0.457,-3.253 -1.371,-4.493c-0.914,-1.241 -2.145,-2.19 -3.691,-2.845c-1.53,-0.674 -3.234,-1.01 -5.115,-1.01l-11.52,0l0,16.776zm0,-19.01l11.441,0c1.74,0 3.26,-0.354 4.561,-1.063c1.318,-0.727 2.338,-1.702 3.058,-2.925c0.739,-1.223 1.108,-2.579 1.108,-4.068c0,-2.552 -0.88,-4.537 -2.637,-5.955c-1.757,-1.418 -4.086,-2.127 -6.986,-2.127l-10.546,0l0,16.138l0.001,0zm35.511,21.244c-1.898,0 -3.286,-0.417 -4.165,-1.25c-0.879,-0.85 -1.318,-2.18 -1.318,-3.988l0,-34.379l2.32,0l0,34.22c0,1.223 0.237,2.083 0.711,2.58c0.475,0.478 1.31,0.717 2.505,0.717l0.712,0l0,2.1l-0.765,0zm12.998,0.425c-1.705,0 -3.278,-0.293 -4.72,-0.877c-1.44,-0.585 -2.61,-1.472 -3.506,-2.66c-0.879,-1.204 -1.318,-2.711 -1.318,-4.519c0,-1.294 0.246,-2.393 0.738,-3.297c0.492,-0.922 1.213,-1.684 2.162,-2.286c0.95,-0.603 2.136,-1.1 3.56,-1.49c1.423,-0.39 3.066,-0.708 4.93,-0.956c1.704,-0.23 3.145,-0.452 4.323,-0.665c1.177,-0.23 2.065,-0.54 2.663,-0.93c0.615,-0.39 0.922,-0.967 0.922,-1.729l0,-0.585c0,-1.311 -0.351,-2.481 -1.054,-3.51c-0.686,-1.027 -1.635,-1.834 -2.848,-2.419c-1.195,-0.602 -2.566,-0.904 -4.112,-0.904c-1.53,0 -2.918,0.302 -4.166,0.904c-1.248,0.585 -2.24,1.383 -2.979,2.393c-0.72,1.01 -1.09,2.154 -1.107,3.43l-2.346,0c0.035,-1.684 0.518,-3.19 1.45,-4.52c0.931,-1.33 2.188,-2.384 3.77,-3.164c1.599,-0.78 3.392,-1.17 5.378,-1.17c1.494,0 2.865,0.222 4.112,0.665c1.248,0.443 2.33,1.063 3.243,1.861a8.31,8.31 0 0 1 2.162,2.845c0.51,1.099 0.765,2.295 0.765,3.59l0,19.568l-2.268,0l0,-5.185l-0.079,0c-0.457,1.064 -1.133,2.02 -2.03,2.872c-0.896,0.833 -1.986,1.497 -3.269,1.994c-1.283,0.496 -2.742,0.744 -4.376,0.744zm0.21,-2.154c1.864,0 3.516,-0.38 4.957,-1.143a8.248,8.248 0 0 0 3.375,-3.27c0.808,-1.436 1.212,-3.155 1.212,-5.158l0,-4.36c-0.316,0.265 -0.72,0.505 -1.212,0.718a9.772,9.772 0 0 1 -1.714,0.558c-0.65,0.142 -1.397,0.283 -2.24,0.425c-0.845,0.142 -1.776,0.284 -2.795,0.426c-2.04,0.283 -3.727,0.664 -5.062,1.143c-1.336,0.478 -2.33,1.108 -2.98,1.888c-0.632,0.78 -0.949,1.772 -0.949,2.977c0,1.241 0.326,2.296 0.976,3.164c0.65,0.869 1.538,1.525 2.663,1.968c1.124,0.443 2.381,0.664 3.77,0.664l-0.001,0zm28.21,-26.348l0,2.1l-12.787,0l0,-2.1c4.263,0 9.979,-0.128 12.787,0zm-8.252,-7.657l2.294,0l0,29.91c0,1.295 0.29,2.243 0.87,2.846c0.597,0.585 1.555,0.877 2.873,0.877l2.215,0l0,2.1l-2.373,0c-1.933,0 -3.4,-0.478 -4.402,-1.435c-0.985,-0.957 -1.477,-2.366 -1.477,-4.228l0,-30.07zm20.828,7.657l0,2.1l-12.787,0l0,-2.1l12.787,0zm-8.252,-7.657l2.293,0l0,29.91c0,1.295 0.29,2.243 0.87,2.846c0.598,0.585 1.556,0.877 2.874,0.877l2.215,0l0,2.1l-2.373,0c-1.934,0 -3.401,-0.478 -4.403,-1.435c-0.984,-0.957 -1.476,-2.366 -1.476,-4.228l0,-30.07z" stroke-width="2.824" stroke-linejoin="round" stroke-linecap="round" stroke="#009a00" fill="#009a00"/>
  </g>
 </g>
</svg>